<svg xmlns="http://www.w3.org/2000/svg" xmlns:xlink="http://www.w3.org/1999/xlink" width="24" height="24" version="1.1" viewBox="0 0 24 24"><g id="surface1"><path style="stroke:none;fill-rule:nonzero;fill:#000;fill-opacity:1" d="M 5.441406 1.574219 C 4.648438 1.785156 4.03125 2.417969 3.820312 3.21875 C 3.710938 3.625 3.710938 20.375 3.820312 20.78125 C 4.03125 21.589844 4.65625 22.21875 5.460938 22.429688 C 5.703125 22.492188 6.53125 22.5 12 22.5 C 18.890625 22.5 18.515625 22.515625 19.082031 22.214844 C 19.410156 22.035156 19.820312 21.625 19.988281 21.289062 C 20.265625 20.746094 20.25 21.089844 20.25 14.007812 L 20.25 7.5 L 18.242188 7.5 C 16.074219 7.5 15.957031 7.492188 15.460938 7.238281 C 15.125 7.070312 14.714844 6.660156 14.535156 6.332031 C 14.257812 5.8125 14.25 5.710938 14.25 3.507812 L 14.25 1.5 L 9.976562 1.503906 C 6.394531 1.503906 5.652344 1.519531 5.441406 1.574219 Z M 10.289062 5.320312 C 11.488281 5.632812 12.234375 6.863281 11.929688 8.03125 C 11.71875 8.839844 11.09375 9.46875 10.289062 9.679688 C 9.113281 9.984375 7.882812 9.238281 7.570312 8.039062 C 7.152344 6.429688 8.679688 4.902344 10.289062 5.320312 Z M 16.902344 9.871094 C 17.152344 10.054688 17.226562 10.203125 17.226562 10.5 C 17.226562 10.796875 17.152344 10.945312 16.902344 11.128906 C 16.785156 11.21875 16.695312 11.226562 15.851562 11.242188 C 14.808594 11.257812 14.652344 11.230469 14.441406 10.992188 C 14.199219 10.714844 14.1875 10.304688 14.421875 10.027344 C 14.644531 9.769531 14.738281 9.75 15.804688 9.765625 C 16.703125 9.773438 16.785156 9.78125 16.902344 9.871094 Z M 11.03125 10.570312 C 11.867188 10.785156 12.53125 11.476562 12.703125 12.300781 C 12.734375 12.460938 12.75 12.933594 12.742188 13.542969 C 12.726562 14.621094 12.71875 14.644531 12.402344 14.878906 C 12.277344 14.976562 12.226562 14.976562 9.75 14.976562 C 7.273438 14.976562 7.222656 14.976562 7.097656 14.878906 C 6.78125 14.644531 6.773438 14.621094 6.757812 13.542969 C 6.75 12.933594 6.765625 12.460938 6.796875 12.300781 C 6.964844 11.484375 7.625 10.796875 8.453125 10.570312 C 8.808594 10.476562 10.664062 10.476562 11.03125 10.570312 Z M 16.902344 13.621094 C 17.152344 13.804688 17.226562 13.953125 17.226562 14.25 C 17.226562 14.546875 17.152344 14.695312 16.902344 14.878906 C 16.785156 14.96875 16.695312 14.976562 15.851562 14.992188 C 14.808594 15.007812 14.652344 14.980469 14.441406 14.742188 C 14.199219 14.464844 14.1875 14.054688 14.421875 13.777344 C 14.644531 13.519531 14.738281 13.5 15.804688 13.515625 C 16.703125 13.523438 16.785156 13.53125 16.902344 13.621094 Z M 16.902344 17.371094 C 17.152344 17.554688 17.226562 17.703125 17.226562 18 C 17.226562 18.296875 17.152344 18.445312 16.902344 18.628906 C 16.777344 18.726562 16.738281 18.726562 12.101562 18.742188 C 8.910156 18.75 7.375 18.742188 7.257812 18.703125 C 6.78125 18.566406 6.601562 17.914062 6.921875 17.527344 C 7.167969 17.242188 6.90625 17.25 12.054688 17.265625 C 16.738281 17.273438 16.777344 17.273438 16.902344 17.371094 Z M 16.902344 17.371094"/><path style="stroke:none;fill-rule:nonzero;fill:#000;fill-opacity:1" d="M 15.75 3.671875 C 15.75 5.019531 15.765625 5.429688 15.816406 5.546875 C 15.894531 5.742188 16.132812 5.945312 16.328125 5.976562 C 16.410156 5.992188 17.222656 5.996094 18.132812 5.992188 L 19.78125 5.976562 L 15.75 1.945312 Z M 15.75 3.671875"/></g></svg>